<svg xmlns="http://www.w3.org/2000/svg" viewBox="0 0 24 24" fill="#2d6a4f"><path d="M12 .5C5.65.5.5 5.65.5 12a11.5 11.5 0 0 0 7.87 10.94c.58.1.8-.25.8-.56v-2c-3.2.7-3.88-1.54-3.88-1.54-.52-1.3-1.27-1.64-1.27-1.64-1.04-.7.08-.69.08-.69 1.16.08 1.77 1.2 1.77 1.2 1.02 1.76 2.67 1.25 3.32.96.1-.74.4-1.25.72-1.53-2.55-.3-5.23-1.28-5.23-5.7 0-1.26.45-2.3 1.2-3.1-.12-.3-.52-1.5.12-3.1 0 0 .97-.3 3.2 1.2a11.1 11.1 0 0 1 5.82 0c2.22-1.5 3.2-1.2 3.2-1.2.64 1.6.24 2.8.12 3.1.75.8 1.2 1.84 1.2 3.1 0 4.43-2.68 5.4-5.24 5.7.42.36.8 1.1.8 2.23v3.3c0 .31.21.67.81.56A11.5 11.5 0 0 0 23.5 12C23.5 5.65 18.35.5 12 .5z"/></svg>